{
	"asset":{
		"version":"2.0",
		"generator":"Maxon Cinema 4D 2025.3.1 (#200000219)"
	},
	"scenes":[{
		"nodes":[0]
	}],
	"nodes":[{
		"name":"Cylinder",
		"translation":[-7.86154317855835,
		0.0,
		0.23070453107357026],
		"rotation":[0.0,
		0.0,
		0.0,
		-1.0],
		"scale":[1.0,
		1.0,
		1.0],
		"children":[1,
		2,
		3,
		4,
		5,
		6,
		7,
		8,
		9,
		10]
	},
	{
		"name":"Cylinder-RS Standard.3",
		"mesh":0
	},
	{
		"name":"Cylinder-RS Standard.3",
		"mesh":1
	},
	{
		"name":"Cylinder-RS Standard.3",
		"mesh":2
	},
	{
		"name":"Cylinder-Mat",
		"mesh":3
	},
	{
		"name":"Cylinder-RS Standard.3",
		"mesh":4
	},
	{
		"name":"Cylinder-Mat",
		"mesh":5
	},
	{
		"name":"Cylinder-Mat",
		"mesh":6
	},
	{
		"name":"Cylinder-Mat",
		"mesh":7
	},
	{
		"name":"Cylinder-Mat",
		"mesh":8
	},
	{
		"name":"Cylinder-Mat",
		"mesh":9
	}],
	"meshes":[{
		"primitives":[{
			"attributes":{
				"POSITION":1,
				"NORMAL":2,
				"TEXCOORD_0":3
			},
			"indices":0,
			"material":0
		}],
		"name":"Cylinder-RS Standard.3"
	},
	{
		"primitives":[{
			"attributes":{
				"POSITION":5,
				"NORMAL":6,
				"TEXCOORD_0":7
			},
			"indices":4,
			"material":0
		}],
		"name":"Cylinder-RS Standard.3"
	},
	{
		"primitives":[{
			"attributes":{
				"POSITION":9,
				"NORMAL":10,
				"TEXCOORD_0":11
			},
			"indices":8,
			"material":0
		}],
		"name":"Cylinder-RS Standard.3"
	},
	{
		"primitives":[{
			"attributes":{
				"POSITION":13,
				"NORMAL":14,
				"TEXCOORD_0":15
			},
			"indices":12,
			"material":1
		}],
		"name":"Cylinder-Mat"
	},
	{
		"primitives":[{
			"attributes":{
				"POSITION":17,
				"NORMAL":18,
				"TEXCOORD_0":19
			},
			"indices":16,
			"material":0
		}],
		"name":"Cylinder-RS Standard.3"
	},
	{
		"primitives":[{
			"attributes":{
				"POSITION":21,
				"NORMAL":22,
				"TEXCOORD_0":23
			},
			"indices":20,
			"material":1
		}],
		"name":"Cylinder-Mat"
	},
	{
		"primitives":[{
			"attributes":{
				"POSITION":25,
				"NORMAL":26,
				"TEXCOORD_0":27
			},
			"indices":24,
			"material":1
		}],
		"name":"Cylinder-Mat"
	},
	{
		"primitives":[{
			"attributes":{
				"POSITION":29,
				"NORMAL":30,
				"TEXCOORD_0":31
			},
			"indices":28,
			"material":1
		}],
		"name":"Cylinder-Mat"
	},
	{
		"primitives":[{
			"attributes":{
				"POSITION":33,
				"NORMAL":34,
				"TEXCOORD_0":35
			},
			"indices":32,
			"material":1
		}],
		"name":"Cylinder-Mat"
	},
	{
		"primitives":[{
			"attributes":{
				"POSITION":37,
				"NORMAL":38,
				"TEXCOORD_0":39
			},
			"indices":36,
			"material":1
		}],
		"name":"Cylinder-Mat"
	}],
	"accessors":[{
		"bufferView":0,
		"type":"SCALAR",
		"max":[40361],
		"componentType":5123,
		"count":40362,
		"byteOffset":0,
		"min":[0]
	},
	{
		"bufferView":1,
		"type":"VEC3",
		"max":[0.9839497804641724,
		1.3084206581115723,
		-0.09189070016145706],
		"componentType":5126,
		"count":40362,
		"byteOffset":0,
		"min":[0.7941111326217651,
		0.9468129277229309,
		-0.2817293703556061]
	},
	{
		"bufferView":1,
		"type":"VEC3",
		"max":[1.0,
		1.0,
		1.0],
		"componentType":5126,
		"count":40362,
		"byteOffset":12,
		"min":[-1.0,
		-1.0,
		-1.0]
	},
	{
		"bufferView":1,
		"type":"VEC2",
		"max":[0.99609375,
		1.0],
		"componentType":5126,
		"count":40362,
		"byteOffset":24,
		"min":[0.0009765625,
		0.011893821880221367]
	},
	{
		"bufferView":2,
		"type":"SCALAR",
		"max":[29],
		"componentType":5123,
		"count":30,
		"byteOffset":0,
		"min":[0]
	},
	{
		"bufferView":3,
		"type":"VEC3",
		"max":[0.98116534948349,
		1.185572624206543,
		-0.1778383105993271],
		"componentType":5126,
		"count":30,
		"byteOffset":0,
		"min":[0.9782177209854126,
		1.184622883796692,
		-0.19583943486213685]
	},
	{
		"bufferView":3,
		"type":"VEC3",
		"max":[0.6714851260185242,
		-0.7406094670295715,
		0.03334445878863335],
		"componentType":5126,
		"count":30,
		"byteOffset":12,
		"min":[0.006093826610594988,
		-0.9999815225601196,
		-0.03334445878863335]
	},
	{
		"bufferView":3,
		"type":"VEC2",
		"max":[0.9480964541435242,
		0.5439143180847168],
		"componentType":5126,
		"count":30,
		"byteOffset":24,
		"min":[0.9070514440536499,
		0.45608556270599368]
	},
	{
		"bufferView":4,
		"type":"SCALAR",
		"max":[53],
		"componentType":5123,
		"count":54,
		"byteOffset":0,
		"min":[0]
	},
	{
		"bufferView":5,
		"type":"VEC3",
		"max":[0.9471039772033691,
		1.185572624206543,
		-0.25608569383621218],
		"componentType":5126,
		"count":54,
		"byteOffset":0,
		"min":[0.8978137969970703,
		1.184622883796692,
		-0.277910053730011]
	},
	{
		"bufferView":5,
		"type":"VEC3",
		"max":[0.4001059830188751,
		-0.7405756711959839,
		-0.004875062964856625],
		"componentType":5126,
		"count":54,
		"byteOffset":12,
		"min":[0.00087501120287925,
		-0.9999816417694092,
		-0.6646680235862732]
	},
	{
		"bufferView":5,
		"type":"VEC2",
		"max":[0.7842556834220886,
		0.17715856432914735],
		"componentType":5126,
		"count":54,
		"byteOffset":24,
		"min":[0.5409325361251831,
		0.05408741533756256]
	},
	{
		"bufferView":6,
		"type":"SCALAR",
		"max":[143],
		"componentType":5123,
		"count":144,
		"byteOffset":0,
		"min":[0]
	},
	{
		"bufferView":7,
		"type":"VEC3",
		"max":[0.9065135717391968,
		1.184622883796692,
		-0.22071921825408936],
		"componentType":5126,
		"count":144,
		"byteOffset":0,
		"min":[0.8062286376953125,
		1.1762287616729737,
		-0.276434063911438]
	},
	{
		"bufferView":7,
		"type":"VEC3",
		"max":[0.14543916285037995,
		-0.14803294837474824,
		-0.4025084972381592],
		"componentType":5126,
		"count":144,
		"byteOffset":12,
		"min":[-0.8497054576873779,
		-0.3409476578235626,
		-0.9877585768699646]
	},
	{
		"bufferView":7,
		"type":"VEC2",
		"max":[0.5952156782150269,
		0.32852089405059817],
		"componentType":5126,
		"count":144,
		"byteOffset":24,
		"min":[0.06808418035507202,
		0.011893821880221367]
	},
	{
		"bufferView":8,
		"type":"SCALAR",
		"max":[5],
		"componentType":5123,
		"count":6,
		"byteOffset":0,
		"min":[0]
	},
	{
		"bufferView":9,
		"type":"VEC3",
		"max":[0.8011369109153748,
		1.1855581998825074,
		-0.19559337198734284],
		"componentType":5126,
		"count":6,
		"byteOffset":0,
		"min":[0.7988161444664002,
		1.184622883796692,
		-0.20449447631835938]
	},
	{
		"bufferView":9,
		"type":"VEC3",
		"max":[-0.6646680235862732,
		-0.7405756711959839,
		-0.09881425648927689],
		"componentType":5126,
		"count":6,
		"byteOffset":12,
		"min":[-0.6646680235862732,
		-0.7405756711959839,
		-0.09881425648927689]
	},
	{
		"bufferView":9,
		"type":"VEC2",
		"max":[0.07723736017942429,
		0.4577525854110718],
		"componentType":5126,
		"count":6,
		"byteOffset":24,
		"min":[0.05408741533756256,
		0.41258901357650759]
	},
	{
		"bufferView":10,
		"type":"SCALAR",
		"max":[35],
		"componentType":5123,
		"count":36,
		"byteOffset":0,
		"min":[0]
	},
	{
		"bufferView":11,
		"type":"VEC3",
		"max":[0.8050448298454285,
		1.184622883796692,
		-0.16079428791999818],
		"componentType":5126,
		"count":36,
		"byteOffset":0,
		"min":[0.7994064092636108,
		1.1762287616729737,
		-0.18681003153324128]
	},
	{
		"bufferView":11,
		"type":"VEC3",
		"max":[-0.912128210067749,
		-0.1480354368686676,
		0.23994427919387818],
		"componentType":5126,
		"count":36,
		"byteOffset":12,
		"min":[-0.9877585768699646,
		-0.3409186601638794,
		0.04668885096907616]
	},
	{
		"bufferView":11,
		"type":"VEC2",
		"max":[0.07122518122196198,
		0.6416856050491333],
		"componentType":5126,
		"count":36,
		"byteOffset":24,
		"min":[0.011893822811543942,
		0.5]
	},
	{
		"bufferView":12,
		"type":"SCALAR",
		"max":[47],
		"componentType":5123,
		"count":48,
		"byteOffset":0,
		"min":[0]
	},
	{
		"bufferView":13,
		"type":"VEC3",
		"max":[0.8554422855377197,
		1.184622883796692,
		-0.10400820523500443],
		"componentType":5126,
		"count":48,
		"byteOffset":0,
		"min":[0.8256567120552063,
		1.1762287616729737,
		-0.12474709749221802]
	},
	{
		"bufferView":13,
		"type":"VEC3",
		"max":[-0.4025084972381592,
		-0.14803504943847657,
		0.8937729001045227],
		"componentType":5126,
		"count":48,
		"byteOffset":12,
		"min":[-0.6637135744094849,
		-0.34091779589653017,
		0.697030246257782]
	},
	{
		"bufferView":13,
		"type":"VEC2",
		"max":[0.3285209536552429,
		0.9509512186050415],
		"componentType":5126,
		"count":48,
		"byteOffset":24,
		"min":[0.1548568159341812,
		0.8168518543243408]
	},
	{
		"bufferView":14,
		"type":"SCALAR",
		"max":[173],
		"componentType":5123,
		"count":174,
		"byteOffset":0,
		"min":[0]
	},
	{
		"bufferView":15,
		"type":"VEC3",
		"max":[0.9680675268173218,
		1.184622883796692,
		-0.09718598425388336],
		"componentType":5126,
		"count":174,
		"byteOffset":0,
		"min":[0.854732871055603,
		1.1762287616729737,
		-0.1450432389974594]
	},
	{
		"bufferView":15,
		"type":"VEC3",
		"max":[0.8062720894813538,
		-0.1480327546596527,
		0.9889542460441589],
		"componentType":5126,
		"count":174,
		"byteOffset":12,
		"min":[-0.33260488510131838,
		-0.3409476578235626,
		0.4836695194244385]
	},
	{
		"bufferView":15,
		"type":"VEC2",
		"max":[0.9122778177261353,
		0.9881061315536499],
		"componentType":5126,
		"count":174,
		"byteOffset":24,
		"min":[0.3132098615169525,
		0.7112149000167847]
	},
	{
		"bufferView":16,
		"type":"SCALAR",
		"max":[11],
		"componentType":5123,
		"count":12,
		"byteOffset":0,
		"min":[0]
	},
	{
		"bufferView":17,
		"type":"VEC3",
		"max":[0.9755383133888245,
		1.1258691549301148,
		-0.169852152466774],
		"componentType":5126,
		"count":12,
		"byteOffset":0,
		"min":[0.9742834568023682,
		1.0960264205932618,
		-0.17829056084156037]
	},
	{
		"bufferView":17,
		"type":"VEC3",
		"max":[0.9891265034675598,
		0.0,
		0.1470673680305481],
		"componentType":5126,
		"count":12,
		"byteOffset":12,
		"min":[0.9891265034675598,
		0.0,
		0.1470673680305481]
	},
	{
		"bufferView":17,
		"type":"VEC2",
		"max":[0.984375,
		0.375],
		"componentType":5126,
		"count":12,
		"byteOffset":24,
		"min":[0.96875,
		0.25]
	},
	{
		"bufferView":18,
		"type":"SCALAR",
		"max":[7517],
		"componentType":5123,
		"count":7518,
		"byteOffset":0,
		"min":[0]
	},
	{
		"bufferView":19,
		"type":"VEC3",
		"max":[0.9786545038223267,
		1.184622883796692,
		-0.09903978556394577],
		"componentType":5126,
		"count":7518,
		"byteOffset":0,
		"min":[0.7994064092636108,
		0.9487054347991943,
		-0.276434063911438]
	},
	{
		"bufferView":19,
		"type":"VEC3",
		"max":[1.0,
		0.0,
		1.0],
		"componentType":5126,
		"count":7518,
		"byteOffset":12,
		"min":[-1.0,
		-0.8539373278617859,
		-1.0]
	},
	{
		"bufferView":19,
		"type":"VEC2",
		"max":[1.0,
		0.993658185005188],
		"componentType":5126,
		"count":7518,
		"byteOffset":24,
		"min":[0.0,
		0.0]
	}],
	"bufferViews":[{
		"buffer":0,
		"byteOffset":0,
		"byteLength":80724,
		"target":34963
	},
	{
		"buffer":0,
		"byteOffset":80724,
		"byteLength":1291584,
		"target":34962,
		"byteStride":32
	},
	{
		"buffer":1,
		"byteOffset":0,
		"byteLength":60,
		"target":34963
	},
	{
		"buffer":1,
		"byteOffset":60,
		"byteLength":960,
		"target":34962,
		"byteStride":32
	},
	{
		"buffer":2,
		"byteOffset":0,
		"byteLength":108,
		"target":34963
	},
	{
		"buffer":2,
		"byteOffset":108,
		"byteLength":1728,
		"target":34962,
		"byteStride":32
	},
	{
		"buffer":3,
		"byteOffset":0,
		"byteLength":288,
		"target":34963
	},
	{
		"buffer":3,
		"byteOffset":288,
		"byteLength":4608,
		"target":34962,
		"byteStride":32
	},
	{
		"buffer":4,
		"byteOffset":0,
		"byteLength":12,
		"target":34963
	},
	{
		"buffer":4,
		"byteOffset":12,
		"byteLength":192,
		"target":34962,
		"byteStride":32
	},
	{
		"buffer":5,
		"byteOffset":0,
		"byteLength":72,
		"target":34963
	},
	{
		"buffer":5,
		"byteOffset":72,
		"byteLength":1152,
		"target":34962,
		"byteStride":32
	},
	{
		"buffer":6,
		"byteOffset":0,
		"byteLength":96,
		"target":34963
	},
	{
		"buffer":6,
		"byteOffset":96,
		"byteLength":1536,
		"target":34962,
		"byteStride":32
	},
	{
		"buffer":7,
		"byteOffset":0,
		"byteLength":348,
		"target":34963
	},
	{
		"buffer":7,
		"byteOffset":348,
		"byteLength":5568,
		"target":34962,
		"byteStride":32
	},
	{
		"buffer":8,
		"byteOffset":0,
		"byteLength":24,
		"target":34963
	},
	{
		"buffer":8,
		"byteOffset":24,
		"byteLength":384,
		"target":34962,
		"byteStride":32
	},
	{
		"buffer":9,
		"byteOffset":0,
		"byteLength":15036,
		"target":34963
	},
	{
		"buffer":9,
		"byteOffset":15036,
		"byteLength":240576,
		"target":34962,
		"byteStride":32
	}],
	"buffers":[{
		"uri":"data:application/octet-stream;base64,",
		"byteLength":1372308
	},
	{
		"uri":"data:application/octet-stream;base64,",
		"byteLength":1020
	},
	{
		"uri":"data:application/octet-stream;base64,",
		"byteLength":1836
	},
	{
		"uri":"data:application/octet-stream;base64,",
		"byteLength":4896
	},
	{
		"uri":"data:application/octet-stream;base64,",
		"byteLength":204
	},
	{
		"uri":"data:application/octet-stream;base64,",
		"byteLength":1224
	},
	{
		"uri":"data:application/octet-stream;base64,",
		"byteLength":1632
	},
	{
		"uri":"data:application/octet-stream;base64,",
		"byteLength":5916
	},
	{
		"uri":"data:application/octet-stream;base64,",
		"byteLength":408
	},
	{
		"uri":"data:application/octet-stream;base64,",
		"byteLength":255612
	}],
	"materials":[{
		"pbrMetallicRoughness":{
			"baseColorFactor":[0.3723145249507402,
			0.3562433943773267,
			0.3562433943773267,
			1.0],
			"metallicFactor":0.1520000072196126,
			"roughnessFactor":0.20000000298023225
		},
		"emissiveFactor":[0.0,
		0.0,
		0.0],
		"alphaMode":"OPAQUE",
		"doubleSided":true,
		"name":"RS Standard.3"
	},
	{
		"pbrMetallicRoughness":{
			"baseColorFactor":[0.9736211031175062,
			0.9695358349089057,
			0.8311969129732185,
			1.0],
			"metallicFactor":0.0,
			"roughnessFactor":0.7360000349581242
		},
		"emissiveFactor":[0.0,
		0.0,
		0.0],
		"alphaMode":"OPAQUE",
		"doubleSided":true,
		"name":"Mat"
	}]
}