{
	"asset":{
		"version":"2.0",
		"generator":"Maxon Cinema 4D 2025.3.1 (#200000219)"
	},
	"scenes":[{
		"nodes":[0]
	}],
	"nodes":[{
		"name":"Cube",
		"mesh":0,
		"translation":[-8.074077606201172,
		1.8178763389587403,
		-0.9387239217758179],
		"rotation":[0.0815594345331192,
		-0.9507485032081604,
		-0.02555917762219906,
		0.2979465126991272],
		"scale":[1.0,
		1.0,
		1.0]
	}],
	"meshes":[{
		"primitives":[{
			"attributes":{
				"POSITION":1,
				"NORMAL":2,
				"TEXCOORD_0":3
			},
			"indices":0,
			"material":0
		}],
		"name":"Cube"
	}],
	"accessors":[{
		"bufferView":0,
		"type":"SCALAR",
		"max":[2291],
		"componentType":5123,
		"count":2292,
		"byteOffset":0,
		"min":[0]
	},
	{
		"bufferView":1,
		"type":"VEC3",
		"max":[0.04731800779700279,
		0.5960000157356262,
		0.5237625241279602],
		"componentType":5126,
		"count":2292,
		"byteOffset":0,
		"min":[-0.04731800779700279,
		-0.5960000157356262,
		-0.5237625241279602]
	},
	{
		"bufferView":1,
		"type":"VEC3",
		"max":[0.9965934753417969,
		0.9965934753417969,
		0.9965934753417969],
		"componentType":5126,
		"count":2292,
		"byteOffset":12,
		"min":[-0.9965497851371765,
		-0.9965934753417969,
		-0.9965934753417969]
	},
	{
		"bufferView":1,
		"type":"VEC2",
		"max":[1.126801609992981,
		1.0100669860839844],
		"componentType":5126,
		"count":2292,
		"byteOffset":24,
		"min":[-0.12680160999298097,
		-0.010067114606499672]
	}],
	"bufferViews":[{
		"buffer":0,
		"byteOffset":0,
		"byteLength":4584,
		"target":34963
	},
	{
		"buffer":0,
		"byteOffset":4584,
		"byteLength":73344,
		"target":34962,
		"byteStride":32
	}],
	"buffers":[{
		"uri":"data:application/octet-stream;base64,",
		"byteLength":77928
	}],
	"materials":[{
		"pbrMetallicRoughness":{
			"baseColorFactor":[0.9736211031175062,
			0.9695358349089057,
			0.8311969129732185,
			1.0],
			"metallicFactor":0.0,
			"roughnessFactor":0.7360000349581242
		},
		"emissiveFactor":[0.0,
		0.0,
		0.0],
		"alphaMode":"OPAQUE",
		"doubleSided":true,
		"name":"Mat"
	}]
}