{
	"asset":{
		"version":"2.0",
		"generator":"Maxon Cinema 4D 2025.3.1 (#200000219)"
	},
	"scenes":[{
		"nodes":[0]
	}],
	"nodes":[{
		"name":"Cube",
		"mesh":0,
		"translation":[-10.809928894042969,
		0.6860901117324829,
		0.4315436780452728],
		"rotation":[-0.1683238297700882,
		0.0,
		0.0,
		-0.9857317805290222],
		"scale":[1.0,
		1.0,
		1.0]
	}],
	"meshes":[{
		"primitives":[{
			"attributes":{
				"POSITION":1,
				"NORMAL":2,
				"TEXCOORD_0":3
			},
			"indices":0,
			"material":0
		}],
		"name":"Cube"
	}],
	"accessors":[{
		"bufferView":0,
		"type":"SCALAR",
		"max":[2291],
		"componentType":5123,
		"count":2292,
		"byteOffset":0,
		"min":[0]
	},
	{
		"bufferView":1,
		"type":"VEC3",
		"max":[0.317987322807312,
		0.25203004479408266,
		0.007968652062118054],
		"componentType":5126,
		"count":2292,
		"byteOffset":0,
		"min":[-0.317987322807312,
		-0.25203004479408266,
		-0.007968652062118054]
	},
	{
		"bufferView":1,
		"type":"VEC3",
		"max":[0.9965934753417969,
		0.9965934753417969,
		0.9965934753417969],
		"componentType":5126,
		"count":2292,
		"byteOffset":12,
		"min":[-0.9965497851371765,
		-0.9965934753417969,
		-0.9965934753417969]
	},
	{
		"bufferView":1,
		"type":"VEC2",
		"max":[1.1380410194396973,
		1.0043644905090333],
		"componentType":5126,
		"count":2292,
		"byteOffset":24,
		"min":[-0.003459257073700428,
		-0.004364559426903725]
	}],
	"bufferViews":[{
		"buffer":0,
		"byteOffset":0,
		"byteLength":4584,
		"target":34963
	},
	{
		"buffer":0,
		"byteOffset":4584,
		"byteLength":73344,
		"target":34962,
		"byteStride":32
	}],
	"buffers":[{
		"uri":"data:application/octet-stream;base64,",
		"byteLength":77928
	}],
	"materials":[{
		"pbrMetallicRoughness":{
			"baseColorFactor":[0.26378896882494015,
			0.03226196021599982,
			0.03226196021599982,
			1.0],
			"metallicFactor":0.0,
			"roughnessFactor":0.7360000349581242
		},
		"emissiveFactor":[0.0,
		0.0,
		0.0],
		"alphaMode":"OPAQUE",
		"doubleSided":true,
		"name":"Mat"
	}]
}