{
	"asset":{
		"version":"2.0",
		"generator":"Maxon Cinema 4D 2025.3.1 (#200000219)"
	},
	"scenes":[{
		"nodes":[0]
	}],
	"nodes":[{
		"name":"Group",
		"translation":[-8.762497901916504,
		1.2314674854278565,
		1.7292479276657105],
		"rotation":[0.0,
		-0.09526664018630982,
		0.0,
		0.995451807975769],
		"scale":[1.0,
		1.0,
		1.0],
		"children":[1,
		2,
		3]
	},
	{
		"name":"Cloner",
		"translation":[0.0,
		-0.06198156252503395,
		-0.04488624632358551],
		"rotation":[0.0,
		0.0,
		0.0,
		-1.0],
		"scale":[1.0,
		1.0,
		1.0],
		"children":[4,
		5,
		6,
		7,
		8,
		9,
		10,
		11,
		12,
		13,
		14,
		15,
		16,
		17,
		18,
		19,
		20,
		21,
		22,
		23,
		24,
		25,
		26,
		27,
		28,
		29,
		30,
		31,
		32,
		33,
		34,
		35,
		36,
		37,
		38,
		39,
		40,
		41,
		42,
		43,
		44,
		45,
		46,
		47,
		48,
		49,
		50,
		51,
		52,
		53,
		54,
		55,
		56,
		57,
		58,
		59,
		60,
		61,
		62,
		63]
	},
	{
		"name":"Cube.20",
		"mesh":0,
		"translation":[0.0,
		-0.07742342352867127,
		-0.08122389763593674],
		"rotation":[-0.7057834267616272,
		0.0,
		0.0,
		-0.7084276676177979],
		"scale":[1.0,
		1.0,
		1.0]
	},
	{
		"name":"Cube.19",
		"mesh":1,
		"translation":[0.0,
		0.13940498232841493,
		0.12611013650894166],
		"rotation":[0.0,
		0.0,
		0.0,
		-1.0],
		"scale":[1.0,
		1.0,
		1.0]
	},
	{
		"name":"Cube.21 0",
		"mesh":2,
		"translation":[-0.2578508257865906,
		0.0,
		0.10479498654603958],
		"rotation":[0.0,
		0.0,
		0.0,
		-1.0],
		"scale":[1.0,
		1.0,
		1.0]
	},
	{
		"name":"Cube.21 1",
		"mesh":2,
		"translation":[-0.21096886694431306,
		0.0,
		0.10479498654603958],
		"rotation":[0.0,
		0.0,
		0.0,
		-1.0],
		"scale":[1.0,
		1.0,
		1.0]
	},
	{
		"name":"Cube.21 2",
		"mesh":2,
		"translation":[-0.16408689320087434,
		0.0,
		0.10479498654603958],
		"rotation":[0.0,
		0.0,
		0.0,
		-1.0],
		"scale":[1.0,
		1.0,
		1.0]
	},
	{
		"name":"Cube.21 3",
		"mesh":2,
		"translation":[-0.11720491945743561,
		0.0,
		0.10479498654603958],
		"rotation":[0.0,
		0.0,
		0.0,
		-1.0],
		"scale":[1.0,
		1.0,
		1.0]
	},
	{
		"name":"Cube.21 4",
		"mesh":2,
		"translation":[-0.07032295316457749,
		0.0,
		0.10479498654603958],
		"rotation":[0.0,
		0.0,
		0.0,
		-1.0],
		"scale":[1.0,
		1.0,
		1.0]
	},
	{
		"name":"Cube.21 5",
		"mesh":2,
		"translation":[-0.02344098500907421,
		0.0,
		0.10479498654603958],
		"rotation":[0.0,
		0.0,
		0.0,
		-1.0],
		"scale":[1.0,
		1.0,
		1.0]
	},
	{
		"name":"Cube.21 6",
		"mesh":2,
		"translation":[0.02344098500907421,
		0.0,
		0.10479498654603958],
		"rotation":[0.0,
		0.0,
		0.0,
		-1.0],
		"scale":[1.0,
		1.0,
		1.0]
	},
	{
		"name":"Cube.21 7",
		"mesh":2,
		"translation":[0.07032295316457749,
		0.0,
		0.10479498654603958],
		"rotation":[0.0,
		0.0,
		0.0,
		-1.0],
		"scale":[1.0,
		1.0,
		1.0]
	},
	{
		"name":"Cube.21 8",
		"mesh":2,
		"translation":[0.11720491945743561,
		0.0,
		0.10479498654603958],
		"rotation":[0.0,
		0.0,
		0.0,
		-1.0],
		"scale":[1.0,
		1.0,
		1.0]
	},
	{
		"name":"Cube.21 9",
		"mesh":2,
		"translation":[0.16408689320087434,
		0.0,
		0.10479498654603958],
		"rotation":[0.0,
		0.0,
		0.0,
		-1.0],
		"scale":[1.0,
		1.0,
		1.0]
	},
	{
		"name":"Cube.21 10",
		"mesh":2,
		"translation":[0.21096886694431306,
		0.0,
		0.10479498654603958],
		"rotation":[0.0,
		0.0,
		0.0,
		-1.0],
		"scale":[1.0,
		1.0,
		1.0]
	},
	{
		"name":"Cube.21 11",
		"mesh":2,
		"translation":[0.2578508257865906,
		0.0,
		0.10479498654603958],
		"rotation":[0.0,
		0.0,
		0.0,
		-1.0],
		"scale":[1.0,
		1.0,
		1.0]
	},
	{
		"name":"Cube.21 12",
		"mesh":2,
		"translation":[-0.2578508257865906,
		0.0,
		0.05239749327301979],
		"rotation":[0.0,
		0.0,
		0.0,
		-1.0],
		"scale":[1.0,
		1.0,
		1.0]
	},
	{
		"name":"Cube.21 13",
		"mesh":2,
		"translation":[-0.21096886694431306,
		0.0,
		0.05239749327301979],
		"rotation":[0.0,
		0.0,
		0.0,
		-1.0],
		"scale":[1.0,
		1.0,
		1.0]
	},
	{
		"name":"Cube.21 14",
		"mesh":2,
		"translation":[-0.16408689320087434,
		0.0,
		0.05239749327301979],
		"rotation":[0.0,
		0.0,
		0.0,
		-1.0],
		"scale":[1.0,
		1.0,
		1.0]
	},
	{
		"name":"Cube.21 15",
		"mesh":2,
		"translation":[-0.11720491945743561,
		0.0,
		0.05239749327301979],
		"rotation":[0.0,
		0.0,
		0.0,
		-1.0],
		"scale":[1.0,
		1.0,
		1.0]
	},
	{
		"name":"Cube.21 16",
		"mesh":2,
		"translation":[-0.07032295316457749,
		0.0,
		0.05239749327301979],
		"rotation":[0.0,
		0.0,
		0.0,
		-1.0],
		"scale":[1.0,
		1.0,
		1.0]
	},
	{
		"name":"Cube.21 17",
		"mesh":2,
		"translation":[-0.02344098500907421,
		0.0,
		0.05239749327301979],
		"rotation":[0.0,
		0.0,
		0.0,
		-1.0],
		"scale":[1.0,
		1.0,
		1.0]
	},
	{
		"name":"Cube.21 18",
		"mesh":2,
		"translation":[0.02344098500907421,
		0.0,
		0.05239749327301979],
		"rotation":[0.0,
		0.0,
		0.0,
		-1.0],
		"scale":[1.0,
		1.0,
		1.0]
	},
	{
		"name":"Cube.21 19",
		"mesh":2,
		"translation":[0.07032295316457749,
		0.0,
		0.05239749327301979],
		"rotation":[0.0,
		0.0,
		0.0,
		-1.0],
		"scale":[1.0,
		1.0,
		1.0]
	},
	{
		"name":"Cube.21 20",
		"mesh":2,
		"translation":[0.11720491945743561,
		0.0,
		0.05239749327301979],
		"rotation":[0.0,
		0.0,
		0.0,
		-1.0],
		"scale":[1.0,
		1.0,
		1.0]
	},
	{
		"name":"Cube.21 21",
		"mesh":2,
		"translation":[0.16408689320087434,
		0.0,
		0.05239749327301979],
		"rotation":[0.0,
		0.0,
		0.0,
		-1.0],
		"scale":[1.0,
		1.0,
		1.0]
	},
	{
		"name":"Cube.21 22",
		"mesh":2,
		"translation":[0.21096886694431306,
		0.0,
		0.05239749327301979],
		"rotation":[0.0,
		0.0,
		0.0,
		-1.0],
		"scale":[1.0,
		1.0,
		1.0]
	},
	{
		"name":"Cube.21 23",
		"mesh":2,
		"translation":[0.2578508257865906,
		0.0,
		0.05239749327301979],
		"rotation":[0.0,
		0.0,
		0.0,
		-1.0],
		"scale":[1.0,
		1.0,
		1.0]
	},
	{
		"name":"Cube.21 24",
		"mesh":2,
		"translation":[-0.2578508257865906,
		0.0,
		0.0],
		"rotation":[0.0,
		0.0,
		0.0,
		-1.0],
		"scale":[1.0,
		1.0,
		1.0]
	},
	{
		"name":"Cube.21 25",
		"mesh":2,
		"translation":[-0.21096886694431306,
		0.0,
		0.0],
		"rotation":[0.0,
		0.0,
		0.0,
		-1.0],
		"scale":[1.0,
		1.0,
		1.0]
	},
	{
		"name":"Cube.21 26",
		"mesh":2,
		"translation":[-0.16408689320087434,
		0.0,
		0.0],
		"rotation":[0.0,
		0.0,
		0.0,
		-1.0],
		"scale":[1.0,
		1.0,
		1.0]
	},
	{
		"name":"Cube.21 27",
		"mesh":2,
		"translation":[-0.11720491945743561,
		0.0,
		0.0],
		"rotation":[0.0,
		0.0,
		0.0,
		-1.0],
		"scale":[1.0,
		1.0,
		1.0]
	},
	{
		"name":"Cube.21 28",
		"mesh":2,
		"translation":[-0.07032295316457749,
		0.0,
		0.0],
		"rotation":[0.0,
		0.0,
		0.0,
		-1.0],
		"scale":[1.0,
		1.0,
		1.0]
	},
	{
		"name":"Cube.21 29",
		"mesh":2,
		"translation":[-0.02344098500907421,
		0.0,
		0.0],
		"rotation":[0.0,
		0.0,
		0.0,
		-1.0],
		"scale":[1.0,
		1.0,
		1.0]
	},
	{
		"name":"Cube.21 30",
		"mesh":2,
		"translation":[0.02344098500907421,
		0.0,
		0.0],
		"rotation":[0.0,
		0.0,
		0.0,
		-1.0],
		"scale":[1.0,
		1.0,
		1.0]
	},
	{
		"name":"Cube.21 31",
		"mesh":2,
		"translation":[0.07032295316457749,
		0.0,
		0.0],
		"rotation":[0.0,
		0.0,
		0.0,
		-1.0],
		"scale":[1.0,
		1.0,
		1.0]
	},
	{
		"name":"Cube.21 32",
		"mesh":2,
		"translation":[0.11720491945743561,
		0.0,
		0.0],
		"rotation":[0.0,
		0.0,
		0.0,
		-1.0],
		"scale":[1.0,
		1.0,
		1.0]
	},
	{
		"name":"Cube.21 33",
		"mesh":2,
		"translation":[0.16408689320087434,
		0.0,
		0.0],
		"rotation":[0.0,
		0.0,
		0.0,
		-1.0],
		"scale":[1.0,
		1.0,
		1.0]
	},
	{
		"name":"Cube.21 34",
		"mesh":2,
		"translation":[0.21096886694431306,
		0.0,
		0.0],
		"rotation":[0.0,
		0.0,
		0.0,
		-1.0],
		"scale":[1.0,
		1.0,
		1.0]
	},
	{
		"name":"Cube.21 35",
		"mesh":2,
		"translation":[0.2578508257865906,
		0.0,
		0.0],
		"rotation":[0.0,
		0.0,
		0.0,
		-1.0],
		"scale":[1.0,
		1.0,
		1.0]
	},
	{
		"name":"Cube.21 36",
		"mesh":2,
		"translation":[-0.2578508257865906,
		0.0,
		-0.05239749327301979],
		"rotation":[0.0,
		0.0,
		0.0,
		-1.0],
		"scale":[1.0,
		1.0,
		1.0]
	},
	{
		"name":"Cube.21 37",
		"mesh":2,
		"translation":[-0.21096886694431306,
		0.0,
		-0.05239749327301979],
		"rotation":[0.0,
		0.0,
		0.0,
		-1.0],
		"scale":[1.0,
		1.0,
		1.0]
	},
	{
		"name":"Cube.21 38",
		"mesh":2,
		"translation":[-0.16408689320087434,
		0.0,
		-0.05239749327301979],
		"rotation":[0.0,
		0.0,
		0.0,
		-1.0],
		"scale":[1.0,
		1.0,
		1.0]
	},
	{
		"name":"Cube.21 39",
		"mesh":2,
		"translation":[-0.11720491945743561,
		0.0,
		-0.05239749327301979],
		"rotation":[0.0,
		0.0,
		0.0,
		-1.0],
		"scale":[1.0,
		1.0,
		1.0]
	},
	{
		"name":"Cube.21 40",
		"mesh":2,
		"translation":[-0.07032295316457749,
		0.0,
		-0.05239749327301979],
		"rotation":[0.0,
		0.0,
		0.0,
		-1.0],
		"scale":[1.0,
		1.0,
		1.0]
	},
	{
		"name":"Cube.21 41",
		"mesh":2,
		"translation":[-0.02344098500907421,
		0.0,
		-0.05239749327301979],
		"rotation":[0.0,
		0.0,
		0.0,
		-1.0],
		"scale":[1.0,
		1.0,
		1.0]
	},
	{
		"name":"Cube.21 42",
		"mesh":2,
		"translation":[0.02344098500907421,
		0.0,
		-0.05239749327301979],
		"rotation":[0.0,
		0.0,
		0.0,
		-1.0],
		"scale":[1.0,
		1.0,
		1.0]
	},
	{
		"name":"Cube.21 43",
		"mesh":2,
		"translation":[0.07032295316457749,
		0.0,
		-0.05239749327301979],
		"rotation":[0.0,
		0.0,
		0.0,
		-1.0],
		"scale":[1.0,
		1.0,
		1.0]
	},
	{
		"name":"Cube.21 44",
		"mesh":2,
		"translation":[0.11720491945743561,
		0.0,
		-0.05239749327301979],
		"rotation":[0.0,
		0.0,
		0.0,
		-1.0],
		"scale":[1.0,
		1.0,
		1.0]
	},
	{
		"name":"Cube.21 45",
		"mesh":2,
		"translation":[0.16408689320087434,
		0.0,
		-0.05239749327301979],
		"rotation":[0.0,
		0.0,
		0.0,
		-1.0],
		"scale":[1.0,
		1.0,
		1.0]
	},
	{
		"name":"Cube.21 46",
		"mesh":2,
		"translation":[0.21096886694431306,
		0.0,
		-0.05239749327301979],
		"rotation":[0.0,
		0.0,
		0.0,
		-1.0],
		"scale":[1.0,
		1.0,
		1.0]
	},
	{
		"name":"Cube.21 47",
		"mesh":2,
		"translation":[0.2578508257865906,
		0.0,
		-0.05239749327301979],
		"rotation":[0.0,
		0.0,
		0.0,
		-1.0],
		"scale":[1.0,
		1.0,
		1.0]
	},
	{
		"name":"Cube.21 48",
		"mesh":2,
		"translation":[-0.2578508257865906,
		0.0,
		-0.10479498654603958],
		"rotation":[0.0,
		0.0,
		0.0,
		-1.0],
		"scale":[1.0,
		1.0,
		1.0]
	},
	{
		"name":"Cube.21 49",
		"mesh":2,
		"translation":[-0.21096886694431306,
		0.0,
		-0.10479498654603958],
		"rotation":[0.0,
		0.0,
		0.0,
		-1.0],
		"scale":[1.0,
		1.0,
		1.0]
	},
	{
		"name":"Cube.21 50",
		"mesh":2,
		"translation":[-0.16408689320087434,
		0.0,
		-0.10479498654603958],
		"rotation":[0.0,
		0.0,
		0.0,
		-1.0],
		"scale":[1.0,
		1.0,
		1.0]
	},
	{
		"name":"Cube.21 51",
		"mesh":2,
		"translation":[-0.11720491945743561,
		0.0,
		-0.10479498654603958],
		"rotation":[0.0,
		0.0,
		0.0,
		-1.0],
		"scale":[1.0,
		1.0,
		1.0]
	},
	{
		"name":"Cube.21 52",
		"mesh":2,
		"translation":[-0.07032295316457749,
		0.0,
		-0.10479498654603958],
		"rotation":[0.0,
		0.0,
		0.0,
		-1.0],
		"scale":[1.0,
		1.0,
		1.0]
	},
	{
		"name":"Cube.21 53",
		"mesh":2,
		"translation":[-0.02344098500907421,
		0.0,
		-0.10479498654603958],
		"rotation":[0.0,
		0.0,
		0.0,
		-1.0],
		"scale":[1.0,
		1.0,
		1.0]
	},
	{
		"name":"Cube.21 54",
		"mesh":2,
		"translation":[0.02344098500907421,
		0.0,
		-0.10479498654603958],
		"rotation":[0.0,
		0.0,
		0.0,
		-1.0],
		"scale":[1.0,
		1.0,
		1.0]
	},
	{
		"name":"Cube.21 55",
		"mesh":2,
		"translation":[0.07032295316457749,
		0.0,
		-0.10479498654603958],
		"rotation":[0.0,
		0.0,
		0.0,
		-1.0],
		"scale":[1.0,
		1.0,
		1.0]
	},
	{
		"name":"Cube.21 56",
		"mesh":2,
		"translation":[0.11720491945743561,
		0.0,
		-0.10479498654603958],
		"rotation":[0.0,
		0.0,
		0.0,
		-1.0],
		"scale":[1.0,
		1.0,
		1.0]
	},
	{
		"name":"Cube.21 57",
		"mesh":2,
		"translation":[0.16408689320087434,
		0.0,
		-0.10479498654603958],
		"rotation":[0.0,
		0.0,
		0.0,
		-1.0],
		"scale":[1.0,
		1.0,
		1.0]
	},
	{
		"name":"Cube.21 58",
		"mesh":2,
		"translation":[0.21096886694431306,
		0.0,
		-0.10479498654603958],
		"rotation":[0.0,
		0.0,
		0.0,
		-1.0],
		"scale":[1.0,
		1.0,
		1.0]
	},
	{
		"name":"Cube.21 59",
		"mesh":2,
		"translation":[0.2578508257865906,
		0.0,
		-0.10479498654603958],
		"rotation":[0.0,
		0.0,
		0.0,
		-1.0],
		"scale":[1.0,
		1.0,
		1.0]
	}],
	"meshes":[{
		"primitives":[{
			"attributes":{
				"POSITION":1,
				"NORMAL":2,
				"TEXCOORD_0":3
			},
			"indices":0,
			"material":0
		}],
		"name":"Cube.20"
	},
	{
		"primitives":[{
			"attributes":{
				"POSITION":5,
				"NORMAL":6,
				"TEXCOORD_0":7
			},
			"indices":4,
			"material":0
		}],
		"name":"Cube.19"
	},
	{
		"primitives":[{
			"attributes":{
				"POSITION":9,
				"NORMAL":10,
				"TEXCOORD_0":11
			},
			"indices":8,
			"material":0
		}],
		"name":"Cube.21 0"
	}],
	"accessors":[{
		"bufferView":0,
		"type":"SCALAR",
		"max":[1799],
		"componentType":5123,
		"count":1800,
		"byteOffset":0,
		"min":[0]
	},
	{
		"bufferView":1,
		"type":"VEC3",
		"max":[0.34185677766799929,
		0.25459927320480349,
		0.009919888339936734],
		"componentType":5126,
		"count":1800,
		"byteOffset":0,
		"min":[-0.34185677766799929,
		-0.25459927320480349,
		-0.009919888339936734]
	},
	{
		"bufferView":1,
		"type":"VEC3",
		"max":[1.0,
		1.0,
		0.998857319355011],
		"componentType":5126,
		"count":1800,
		"byteOffset":12,
		"min":[-1.0,
		-1.0,
		-1.0]
	},
	{
		"bufferView":1,
		"type":"VEC2",
		"max":[1.0,
		1.0],
		"componentType":5126,
		"count":1800,
		"byteOffset":24,
		"min":[0.0,
		0.0]
	},
	{
		"bufferView":2,
		"type":"SCALAR",
		"max":[1115],
		"componentType":5123,
		"count":1116,
		"byteOffset":0,
		"min":[0]
	},
	{
		"bufferView":3,
		"type":"VEC3",
		"max":[0.34185677766799929,
		0.22637151181697846,
		0.009919888339936734],
		"componentType":5126,
		"count":1116,
		"byteOffset":0,
		"min":[-0.34185677766799929,
		-0.22637151181697846,
		-0.009919888339936734]
	},
	{
		"bufferView":3,
		"type":"VEC3",
		"max":[1.0,
		1.0,
		1.0],
		"componentType":5126,
		"count":1116,
		"byteOffset":12,
		"min":[-1.0,
		-1.0,
		-1.0]
	},
	{
		"bufferView":3,
		"type":"VEC2",
		"max":[1.0,
		1.0],
		"componentType":5126,
		"count":1116,
		"byteOffset":24,
		"min":[0.0,
		0.0]
	},
	{
		"bufferView":4,
		"type":"SCALAR",
		"max":[2291],
		"componentType":5123,
		"count":2292,
		"byteOffset":0,
		"min":[0]
	},
	{
		"bufferView":5,
		"type":"VEC3",
		"max":[0.02106809802353382,
		0.00921983364969492,
		0.02106809802353382],
		"componentType":5126,
		"count":2292,
		"byteOffset":0,
		"min":[-0.02106809802353382,
		-0.00921983364969492,
		-0.02106809802353382]
	},
	{
		"bufferView":5,
		"type":"VEC3",
		"max":[0.9997552633285523,
		0.9983271360397339,
		0.9997552633285523],
		"componentType":5126,
		"count":2292,
		"byteOffset":12,
		"min":[-0.9997552633285523,
		-0.998442530632019,
		-0.9997552633285523]
	},
	{
		"bufferView":5,
		"type":"VEC2",
		"max":[1.0363035202026368,
		1.1088237762451172],
		"componentType":5126,
		"count":2292,
		"byteOffset":24,
		"min":[-0.03630353510379791,
		-0.05157139152288437]
	}],
	"bufferViews":[{
		"buffer":0,
		"byteOffset":0,
		"byteLength":3600,
		"target":34963
	},
	{
		"buffer":0,
		"byteOffset":3600,
		"byteLength":57600,
		"target":34962,
		"byteStride":32
	},
	{
		"buffer":1,
		"byteOffset":0,
		"byteLength":2232,
		"target":34963
	},
	{
		"buffer":1,
		"byteOffset":2232,
		"byteLength":35712,
		"target":34962,
		"byteStride":32
	},
	{
		"buffer":2,
		"byteOffset":0,
		"byteLength":4584,
		"target":34963
	},
	{
		"buffer":2,
		"byteOffset":4584,
		"byteLength":73344,
		"target":34962,
		"byteStride":32
	}],
	"buffers":[{
		"uri":"data:application/octet-stream;base64,",
		"byteLength":61200
	},
	{
		"uri":"data:application/octet-stream;base64,",
		"byteLength":37944
	},
	{
		"uri":"data:application/octet-stream;base64,",
		"byteLength":77928
	}],
	"materials":[{
		"pbrMetallicRoughness":{
			"baseColorFactor":[0.1414868105515576,
			0.1268970435162651,
			0.1268970435162651,
			1.0],
			"metallicFactor":0.0,
			"roughnessFactor":0.7360000349581242
		},
		"emissiveFactor":[0.0,
		0.0,
		0.0],
		"alphaMode":"OPAQUE",
		"doubleSided":true,
		"name":"Mat"
	}]
}