{
	"asset":{
		"version":"2.0",
		"generator":"Maxon Cinema 4D 2025.3.1 (#200000219)"
	},
	"scenes":[{
		"nodes":[0]
	}],
	"nodes":[{
		"name":"Boolean",
		"mesh":0,
		"translation":[-10.754369735717774,
		1.5864168405532838,
		-0.07234184443950653],
		"rotation":[0.0,
		-0.7075976729393005,
		0.0,
		-0.7066155672073364],
		"scale":[1.0,
		1.0,
		1.0]
	}],
	"meshes":[{
		"primitives":[{
			"attributes":{
				"POSITION":1,
				"NORMAL":2,
				"TEXCOORD_0":3
			},
			"indices":0,
			"material":0
		}],
		"name":"Boolean"
	}],
	"accessors":[{
		"bufferView":0,
		"type":"SCALAR",
		"max":[8831],
		"componentType":5123,
		"count":8832,
		"byteOffset":0,
		"min":[0]
	},
	{
		"bufferView":1,
		"type":"VEC3",
		"max":[0.2066231518983841,
		-0.006796551868319511,
		0.02414098009467125],
		"componentType":5126,
		"count":8832,
		"byteOffset":0,
		"min":[-0.2901393175125122,
		-0.02283218689262867,
		-0.47262150049209597]
	},
	{
		"bufferView":1,
		"type":"VEC3",
		"max":[1.0,
		1.0,
		1.0],
		"componentType":5126,
		"count":8832,
		"byteOffset":12,
		"min":[-1.0,
		-1.0,
		-1.0]
	},
	{
		"bufferView":1,
		"type":"VEC2",
		"max":[1.0,
		1.0],
		"componentType":5126,
		"count":8832,
		"byteOffset":24,
		"min":[0.0,
		0.0]
	}],
	"bufferViews":[{
		"buffer":0,
		"byteOffset":0,
		"byteLength":17664,
		"target":34963
	},
	{
		"buffer":0,
		"byteOffset":17664,
		"byteLength":282624,
		"target":34962,
		"byteStride":32
	}],
	"buffers":[{
		"uri":"data:application/octet-stream;base64,",
		"byteLength":300288
	}],
	"materials":[{
		"pbrMetallicRoughness":{
			"baseColorFactor":[0.06830755944432807,
			0.056334788284480467,
			0.07434052757793786,
			1.0],
			"metallicFactor":0.0,
			"roughnessFactor":0.7360000349581242
		},
		"emissiveFactor":[0.0,
		0.0,
		0.0],
		"alphaMode":"OPAQUE",
		"doubleSided":true,
		"name":"Mat"
	}]
}