{
	"scenes":[{
		"nodes":[0]
	}],
	"asset":{
		"version":"2.0",
		"generator":"Maxon Cinema 4D 2025.3.1 (#200000219)"
	},
	"nodes":[{
		"name":"Subdivision Surface",
		"translation":[-10.298831939697266,
		0.9031294584274292,
		1.7984510660171509],
		"rotation":[0.0,
		0.0,
		0.0,
		-1.0],
		"scale":[1.0,
		1.0,
		1.0],
		"children":[1]
	},
	{
		"name":"Cube.22",
		"translation":[0.06829565018415451,
		1.2081116437911988,
		0.0],
		"mesh":0,
		"rotation":[0.0,
		0.0,
		0.0,
		-1.0],
		"scale":[1.0,
		1.0,
		1.0]
	}],
	"meshes":[{
		"name":"Cube.22",
		"primitives":[{
			"attributes":{
				"POSITION":1,
				"NORMAL":2,
				"TEXCOORD_0":3
			},
			"indices":0,
			"material":0
		}]
	}],
	"accessors":[{
		"bufferView":0,
		"byteOffset":0,
		"type":"SCALAR",
		"componentType":5123,
		"max":[4415],
		"count":4416,
		"min":[0]
	},
	{
		"bufferView":1,
		"byteOffset":0,
		"type":"VEC3",
		"componentType":5126,
		"max":[0.30969417095184328,
		0.2268453985452652,
		0.30969417095184328],
		"count":4416,
		"min":[-0.30969417095184328,
		-0.22755011916160584,
		-0.30969417095184328]
	},
	{
		"bufferView":1,
		"byteOffset":12,
		"type":"VEC3",
		"componentType":5126,
		"max":[0.9999114871025086,
		1.0,
		0.9999114871025086],
		"count":4416,
		"min":[-0.9999114871025086,
		-1.0,
		-0.9999114871025086]
	},
	{
		"bufferView":1,
		"byteOffset":24,
		"type":"VEC2",
		"componentType":5126,
		"max":[1.0,
		0.9992799758911133],
		"count":4416,
		"min":[0.0,
		0.0007963672978803515]
	}],
	"bufferViews":[{
		"buffer":0,
		"byteOffset":0,
		"byteLength":8832,
		"target":34963
	},
	{
		"buffer":0,
		"byteOffset":8832,
		"byteLength":141312,
		"target":34962,
		"byteStride":32
	}],
	"buffers":[{
		"uri":"data:application/octet-stream;base64,",
		"byteLength":150144
	}],
	"materials":[{
		"pbrMetallicRoughness":{
			"baseColorFactor":[0.9544364508393283,
			0.7978678771551985,
			0.6334299466901301,
			1.0],
			"metallicFactor":0.0,
			"roughnessFactor":0.7360000349581242
		},
		"emissiveFactor":[0.0,
		0.0,
		0.0],
		"alphaMode":"OPAQUE",
		"doubleSided":true,
		"name":"Mat"
	}]
}