{
	"asset":{
		"version":"2.0",
		"generator":"Maxon Cinema 4D 2025.3.1 (#200000219)"
	},
	"scenes":[{
		"nodes":[0,
		1]
	}],
	"nodes":[{
		"name":"Boolean",
		"mesh":0,
		"translation":[-8.02261734008789,
		1.165921926498413,
		1.7573055028915406],
		"rotation":[0.7008197903633118,
		-0.10351070761680603,
		-0.10312576591968537,
		-0.6982135772705078],
		"scale":[1.0,
		1.0,
		1.0]
	},
	{
		"name":"Cube",
		"mesh":1,
		"translation":[-8.161069869995118,
		1.165514588356018,
		1.6479600667953492],
		"rotation":[0.7008197903633118,
		-0.10351070761680603,
		-0.10312576591968537,
		-0.6982135772705078],
		"scale":[1.0,
		1.0,
		1.0]
	}],
	"meshes":[{
		"primitives":[{
			"attributes":{
				"POSITION":1,
				"NORMAL":2,
				"TEXCOORD_0":3
			},
			"indices":0,
			"material":0
		}],
		"name":"Boolean"
	},
	{
		"primitives":[{
			"attributes":{
				"POSITION":5,
				"NORMAL":6,
				"TEXCOORD_0":7
			},
			"indices":4,
			"material":1
		}],
		"name":"Cube"
	}],
	"accessors":[{
		"bufferView":0,
		"type":"SCALAR",
		"max":[2699],
		"componentType":5123,
		"count":2700,
		"byteOffset":0,
		"min":[0]
	},
	{
		"bufferView":1,
		"type":"VEC3",
		"max":[0.033398233354091647,
		0.2959210276603699,
		0.02951851859688759],
		"componentType":5126,
		"count":2700,
		"byteOffset":0,
		"min":[-0.2183661013841629,
		-0.006515378598123789,
		-0.02951851859688759]
	},
	{
		"bufferView":1,
		"type":"VEC3",
		"max":[0.9864997863769531,
		1.0,
		1.0],
		"componentType":5126,
		"count":2700,
		"byteOffset":12,
		"min":[-0.9995748996734619,
		-1.0,
		-1.0]
	},
	{
		"bufferView":1,
		"type":"VEC2",
		"max":[1.0350277423858643,
		1.0226666927337647],
		"componentType":5126,
		"count":2700,
		"byteOffset":24,
		"min":[-0.02266666665673256,
		-0.02266666665673256]
	},
	{
		"bufferView":2,
		"type":"SCALAR",
		"max":[2291],
		"componentType":5123,
		"count":2292,
		"byteOffset":0,
		"min":[0]
	},
	{
		"bufferView":3,
		"type":"VEC3",
		"max":[0.10916508734226227,
		0.13680821657180787,
		0.02271498739719391],
		"componentType":5126,
		"count":2292,
		"byteOffset":0,
		"min":[-0.10916508734226227,
		-0.13680821657180787,
		-0.02271498739719391]
	},
	{
		"bufferView":3,
		"type":"VEC3",
		"max":[0.9871071577072144,
		0.9844978451728821,
		0.999522864818573],
		"componentType":5126,
		"count":2292,
		"byteOffset":12,
		"min":[-0.9871071577072144,
		-0.9844978451728821,
		-0.999522864818573]
	},
	{
		"bufferView":3,
		"type":"VEC2",
		"max":[1.015396237373352,
		1.0070741176605225],
		"componentType":5126,
		"count":2292,
		"byteOffset":24,
		"min":[-0.008465717546641827,
		-0.007074157707393169]
	}],
	"bufferViews":[{
		"buffer":0,
		"byteOffset":0,
		"byteLength":5400,
		"target":34963
	},
	{
		"buffer":0,
		"byteOffset":5400,
		"byteLength":86400,
		"target":34962,
		"byteStride":32
	},
	{
		"buffer":1,
		"byteOffset":0,
		"byteLength":4584,
		"target":34963
	},
	{
		"buffer":1,
		"byteOffset":4584,
		"byteLength":73344,
		"target":34962,
		"byteStride":32
	}],
	"buffers":[{
		"uri":"data:application/octet-stream;base64,",
		"byteLength":91800
	},
	{
		"uri":"data:application/octet-stream;base64,",
		"byteLength":77928
	}],
	"materials":[{
		"pbrMetallicRoughness":{
			"baseColorFactor":[0.26378896882494015,
			0.03226196021599982,
			0.03226196021599982,
			1.0],
			"metallicFactor":0.0,
			"roughnessFactor":0.7360000349581242
		},
		"emissiveFactor":[0.0,
		0.0,
		0.0],
		"alphaMode":"OPAQUE",
		"doubleSided":true,
		"name":"Mat"
	},
	{
		"pbrMetallicRoughness":{
			"baseColorFactor":[0.9736211031175062,
			0.9695358349089057,
			0.8311969129732185,
			1.0],
			"metallicFactor":0.0,
			"roughnessFactor":0.7360000349581242
		},
		"emissiveFactor":[0.0,
		0.0,
		0.0],
		"alphaMode":"OPAQUE",
		"doubleSided":true,
		"name":"Mat"
	}]
}