{
	"asset":{
		"version":"2.0",
		"generator":"Maxon Cinema 4D 2025.3.1 (#200000219)"
	},
	"scenes":[{
		"nodes":[0]
	}],
	"nodes":[{
		"name":"Cylinder",
		"translation":[-8.02993392944336,
		1.0694445371627808,
		-1.9051603078842164],
		"rotation":[0.0,
		0.0,
		0.0,
		-1.0],
		"scale":[1.0,
		1.0,
		1.0],
		"children":[1,
		2,
		3,
		4,
		5,
		6]
	},
	{
		"name":"Cylinder-Mat",
		"mesh":0
	},
	{
		"name":"Cylinder-Mat",
		"mesh":1
	},
	{
		"name":"Cylinder-Mat",
		"mesh":2
	},
	{
		"name":"Cylinder-Mat",
		"mesh":3
	},
	{
		"name":"Cylinder-Mat",
		"mesh":4
	},
	{
		"name":"Cylinder-Mat",
		"mesh":5
	}],
	"meshes":[{
		"primitives":[{
			"attributes":{
				"POSITION":1,
				"NORMAL":2,
				"TEXCOORD_0":3
			},
			"indices":0,
			"material":0
		}],
		"name":"Cylinder-Mat"
	},
	{
		"primitives":[{
			"attributes":{
				"POSITION":5,
				"NORMAL":6,
				"TEXCOORD_0":7
			},
			"indices":4,
			"material":1
		}],
		"name":"Cylinder-Mat"
	},
	{
		"primitives":[{
			"attributes":{
				"POSITION":9,
				"NORMAL":10,
				"TEXCOORD_0":11
			},
			"indices":8,
			"material":1
		}],
		"name":"Cylinder-Mat"
	},
	{
		"primitives":[{
			"attributes":{
				"POSITION":13,
				"NORMAL":14,
				"TEXCOORD_0":15
			},
			"indices":12,
			"material":2
		}],
		"name":"Cylinder-Mat"
	},
	{
		"primitives":[{
			"attributes":{
				"POSITION":17,
				"NORMAL":18,
				"TEXCOORD_0":19
			},
			"indices":16,
			"material":2
		}],
		"name":"Cylinder-Mat"
	},
	{
		"primitives":[{
			"attributes":{
				"POSITION":21,
				"NORMAL":22,
				"TEXCOORD_0":23
			},
			"indices":20,
			"material":2
		}],
		"name":"Cylinder-Mat"
	}],
	"accessors":[{
		"bufferView":0,
		"type":"SCALAR",
		"max":[8921],
		"componentType":5123,
		"count":8922,
		"byteOffset":0,
		"min":[0]
	},
	{
		"bufferView":1,
		"type":"VEC3",
		"max":[0.009868355467915535,
		0.04049660265445709,
		-0.04199201241135597],
		"componentType":5126,
		"count":8922,
		"byteOffset":0,
		"min":[-0.03802105784416199,
		-0.015072961337864399,
		-0.15081609785556794]
	},
	{
		"bufferView":1,
		"type":"VEC3",
		"max":[0.9999934434890747,
		0.9993782043457031,
		0.9109353423118591],
		"componentType":5126,
		"count":8922,
		"byteOffset":12,
		"min":[-0.9994574189186096,
		-0.9973757266998291,
		-0.9789555072784424]
	},
	{
		"bufferView":1,
		"type":"VEC2",
		"max":[1.0,
		0.9881061315536499],
		"componentType":5126,
		"count":8922,
		"byteOffset":24,
		"min":[0.0,
		0.0]
	},
	{
		"bufferView":2,
		"type":"SCALAR",
		"max":[8519],
		"componentType":5123,
		"count":8520,
		"byteOffset":0,
		"min":[0]
	},
	{
		"bufferView":3,
		"type":"VEC3",
		"max":[0.0575137622654438,
		0.013930223882198334,
		0.1437980830669403],
		"componentType":5126,
		"count":8520,
		"byteOffset":0,
		"min":[-0.02098844386637211,
		-0.08319000154733658,
		-0.0516900010406971]
	},
	{
		"bufferView":3,
		"type":"VEC3",
		"max":[0.9998907446861267,
		0.9409579634666443,
		0.9943029284477234],
		"componentType":5126,
		"count":8520,
		"byteOffset":12,
		"min":[-0.9713779091835022,
		-0.9930903315544128,
		-0.41257208585739138]
	},
	{
		"bufferView":3,
		"type":"VEC2",
		"max":[1.0,
		1.0],
		"componentType":5126,
		"count":8520,
		"byteOffset":24,
		"min":[0.0,
		0.011893821880221367]
	},
	{
		"bufferView":4,
		"type":"SCALAR",
		"max":[1463],
		"componentType":5123,
		"count":1464,
		"byteOffset":0,
		"min":[0]
	},
	{
		"bufferView":5,
		"type":"VEC3",
		"max":[0.01168091781437397,
		0.016736242920160295,
		-0.03455362096428871],
		"componentType":5126,
		"count":1464,
		"byteOffset":0,
		"min":[-0.022964205592870714,
		-0.01717815361917019,
		-0.05600909888744354]
	},
	{
		"bufferView":5,
		"type":"VEC3",
		"max":[0.9713779091835022,
		0.9409579634666443,
		0.41257208585739138],
		"componentType":5126,
		"count":1464,
		"byteOffset":12,
		"min":[-0.9713779091835022,
		-0.9409579634666443,
		-0.41257208585739138]
	},
	{
		"bufferView":5,
		"type":"VEC2",
		"max":[1.0,
		0.078125],
		"componentType":5126,
		"count":1464,
		"byteOffset":24,
		"min":[0.0,
		0.0]
	},
	{
		"bufferView":6,
		"type":"SCALAR",
		"max":[10517],
		"componentType":5123,
		"count":10518,
		"byteOffset":0,
		"min":[0]
	},
	{
		"bufferView":7,
		"type":"VEC3",
		"max":[0.013788684271275998,
		0.028504090383648874,
		-0.040586743503808978],
		"componentType":5126,
		"count":10518,
		"byteOffset":0,
		"min":[-0.032627053558826449,
		-0.018816407769918443,
		-0.07848872989416123]
	},
	{
		"bufferView":7,
		"type":"VEC3",
		"max":[0.9966665506362915,
		0.9996248483657837,
		0.9926338791847229],
		"componentType":5126,
		"count":10518,
		"byteOffset":12,
		"min":[-0.9995545148849487,
		-0.9954537749290466,
		-0.9983688592910767]
	},
	{
		"bufferView":7,
		"type":"VEC2",
		"max":[0.9881061911582947,
		0.9857274293899536],
		"componentType":5126,
		"count":10518,
		"byteOffset":24,
		"min":[0.011893822811543942,
		0.0]
	},
	{
		"bufferView":8,
		"type":"SCALAR",
		"max":[1349],
		"componentType":5123,
		"count":1350,
		"byteOffset":0,
		"min":[0]
	},
	{
		"bufferView":9,
		"type":"VEC3",
		"max":[0.008865244686603547,
		0.023819711059331895,
		-0.06143809109926224],
		"componentType":5126,
		"count":1350,
		"byteOffset":0,
		"min":[-0.032511208206415179,
		-0.011257150210440159,
		-0.07813750207424164]
	},
	{
		"bufferView":9,
		"type":"VEC3",
		"max":[0.9501758813858032,
		0.6948315501213074,
		-0.30900636315345766],
		"componentType":5126,
		"count":1350,
		"byteOffset":12,
		"min":[-0.7642340660095215,
		-0.2823202311992645,
		-0.995506763458252]
	},
	{
		"bufferView":9,
		"type":"VEC2",
		"max":[0.7835327386856079,
		0.9196505546569824],
		"componentType":5126,
		"count":1350,
		"byteOffset":24,
		"min":[0.09920847415924072,
		0.06639614701271057]
	},
	{
		"bufferView":10,
		"type":"SCALAR",
		"max":[1529],
		"componentType":5123,
		"count":1530,
		"byteOffset":0,
		"min":[0]
	},
	{
		"bufferView":11,
		"type":"VEC3",
		"max":[0.008820055983960629,
		0.028504090383648874,
		-0.061257749795913699],
		"componentType":5126,
		"count":1530,
		"byteOffset":0,
		"min":[-0.022885341197252275,
		0.009802102111279965,
		-0.0746409073472023]
	},
	{
		"bufferView":11,
		"type":"VEC3",
		"max":[0.9445288777351379,
		0.9970521926879883,
		0.23528903722763062],
		"componentType":5126,
		"count":1530,
		"byteOffset":12,
		"min":[-0.47703734040260317,
		0.224725604057312,
		-0.9350606799125671]
	},
	{
		"bufferView":11,
		"type":"VEC2",
		"max":[0.9469569325447083,
		0.9151077270507813],
		"componentType":5126,
		"count":1530,
		"byteOffset":24,
		"min":[0.6106102466583252,
		0.1562841236591339]
	}],
	"bufferViews":[{
		"buffer":0,
		"byteOffset":0,
		"byteLength":17844,
		"target":34963
	},
	{
		"buffer":0,
		"byteOffset":17844,
		"byteLength":285504,
		"target":34962,
		"byteStride":32
	},
	{
		"buffer":1,
		"byteOffset":0,
		"byteLength":17040,
		"target":34963
	},
	{
		"buffer":1,
		"byteOffset":17040,
		"byteLength":272640,
		"target":34962,
		"byteStride":32
	},
	{
		"buffer":2,
		"byteOffset":0,
		"byteLength":2928,
		"target":34963
	},
	{
		"buffer":2,
		"byteOffset":2928,
		"byteLength":46848,
		"target":34962,
		"byteStride":32
	},
	{
		"buffer":3,
		"byteOffset":0,
		"byteLength":21036,
		"target":34963
	},
	{
		"buffer":3,
		"byteOffset":21036,
		"byteLength":336576,
		"target":34962,
		"byteStride":32
	},
	{
		"buffer":4,
		"byteOffset":0,
		"byteLength":2700,
		"target":34963
	},
	{
		"buffer":4,
		"byteOffset":2700,
		"byteLength":43200,
		"target":34962,
		"byteStride":32
	},
	{
		"buffer":5,
		"byteOffset":0,
		"byteLength":3060,
		"target":34963
	},
	{
		"buffer":5,
		"byteOffset":3060,
		"byteLength":48960,
		"target":34962,
		"byteStride":32
	}],
	"buffers":[{
		"uri":"data:application/octet-stream;base64,",
		"byteLength":303348
	},
	{
		"uri":"data:application/octet-stream;base64,",
		"byteLength":289680
	},
	{
		"uri":"data:application/octet-stream;base64,",
		"byteLength":49776
	},
	{
		"uri":"data:application/octet-stream;base64,",
		"byteLength":357612
	},
	{
		"uri":"data:application/octet-stream;base64,",
		"byteLength":45900
	},
	{
		"uri":"data:application/octet-stream;base64,",
		"byteLength":52020
	}],
	"materials":[{
		"pbrMetallicRoughness":{
			"baseColorFactor":[0.9736211031175062,
			0.9695358349089057,
			0.8311969129732185,
			1.0],
			"metallicFactor":0.0,
			"roughnessFactor":0.7360000349581242
		},
		"emissiveFactor":[0.0,
		0.0,
		0.0],
		"alphaMode":"OPAQUE",
		"doubleSided":true,
		"name":"Mat"
	},
	{
		"pbrMetallicRoughness":{
			"baseColorFactor":[0.26378896882494015,
			0.03226196021599982,
			0.03226196021599982,
			1.0],
			"metallicFactor":0.0,
			"roughnessFactor":0.7360000349581242
		},
		"emissiveFactor":[0.0,
		0.0,
		0.0],
		"alphaMode":"OPAQUE",
		"doubleSided":true,
		"name":"Mat"
	},
	{
		"pbrMetallicRoughness":{
			"baseColorFactor":[0.8274509803921568,
			0.5343950899200269,
			0.04242206235012012,
			1.0],
			"metallicFactor":0.0,
			"roughnessFactor":0.7360000349581242
		},
		"emissiveFactor":[0.0,
		0.0,
		0.0],
		"alphaMode":"OPAQUE",
		"doubleSided":true,
		"name":"Mat"
	}]
}