{
	"asset":{
		"version":"2.0",
		"generator":"Maxon Cinema 4D 2025.3.1 (#200000219)",
		"copyright":""
	},
	"scenes":[{
		"nodes":[0]
	}],
	"nodes":[{
		"name":"Plane",
		"mesh":0,
		"translation":[-8.78646183013916,
		1.3840382099151612,
		1.8467073440551758],
		"rotation":[0.6999223232269287,
		-0.06601858884096146,
		0.06678225100040436,
		0.7080186605453491],
		"scale":[1.0,
		1.0,
		1.0]
	}],
	"meshes":[{
		"primitives":[{
			"attributes":{
				"POSITION":1,
				"NORMAL":2,
				"TEXCOORD_0":3
			},
			"indices":0
		}],
		"name":"Plane"
	}],
	"accessors":[{
		"bufferView":0,
		"type":"SCALAR",
		"max":[599],
		"componentType":5123,
		"count":600,
		"byteOffset":0,
		"min":[0]
	},
	{
		"bufferView":1,
		"type":"VEC3",
		"max":[0.33658432960510256,
		2.0144857529606938e-15,
		0.20354919135570527],
		"componentType":5126,
		"count":600,
		"byteOffset":0,
		"min":[-0.33658429980278017,
		1.9668272324251938e-15,
		-0.20354920625686646]
	},
	{
		"bufferView":1,
		"type":"VEC3",
		"max":[0.0,
		1.0,
		0.0],
		"componentType":5126,
		"count":600,
		"byteOffset":12,
		"min":[0.0,
		1.0,
		0.0]
	},
	{
		"bufferView":1,
		"type":"VEC2",
		"max":[1.0,
		1.0],
		"componentType":5126,
		"count":600,
		"byteOffset":24,
		"min":[0.0,
		0.0]
	}],
	"bufferViews":[{
		"buffer":0,
		"byteOffset":0,
		"byteLength":1200,
		"target":34963
	},
	{
		"buffer":0,
		"byteOffset":1200,
		"byteLength":19200,
		"target":34962,
		"byteStride":32
	}],
	"buffers":[{
		"uri":"data:application/octet-stream;base64,",
		"byteLength":20400
	}]
}