{
	"scenes":[{
		"nodes":[0,
		1,
		2,
		3]
	}],
	"asset":{
		"version":"2.0",
		"generator":"Maxon Cinema 4D 2025.3.1 (#200000219)"
	},
	"nodes":[{
		"name":"Cube",
		"translation":[-8.769790649414063,
		1.7599105834960938,
		2.466036319732666],
		"mesh":0,
		"rotation":[0.0,
		0.0,
		0.0,
		-1.0],
		"scale":[1.0,
		1.0,
		1.0]
	},
	{
		"name":"Cube.1",
		"translation":[-11.380995750427246,
		1.7599105834960938,
		-0.036077797412872317],
		"mesh":1,
		"rotation":[0.0,
		-0.7034274935722351,
		0.0,
		0.7107670307159424],
		"scale":[1.0,
		1.0,
		1.0]
	},
	{
		"name":"Cube.2",
		"translation":[-11.387787818908692,
		4.678364276885986,
		-0.036077797412872317],
		"mesh":2,
		"rotation":[0.0,
		-0.7034274935722351,
		0.0,
		0.7107670307159424],
		"scale":[1.0,
		1.0,
		1.0]
	},
	{
		"name":"Cube.3",
		"translation":[-8.769790649414063,
		4.153363227844238,
		1.2941442728042603],
		"mesh":3,
		"rotation":[0.44157710671424868,
		0.0,
		0.0,
		-0.8972232937812805],
		"scale":[1.0,
		1.0,
		1.0]
	}],
	"meshes":[{
		"name":"Cube",
		"primitives":[{
			"attributes":{
				"POSITION":1,
				"NORMAL":2,
				"TEXCOORD_0":3
			},
			"indices":0,
			"material":0
		}]
	},
	{
		"name":"Cube.1",
		"primitives":[{
			"attributes":{
				"POSITION":5,
				"NORMAL":6,
				"TEXCOORD_0":7
			},
			"indices":4,
			"material":0
		}]
	},
	{
		"name":"Cube.2",
		"primitives":[{
			"attributes":{
				"POSITION":9,
				"NORMAL":10,
				"TEXCOORD_0":11
			},
			"indices":8,
			"material":0
		}]
	},
	{
		"name":"Cube.3",
		"primitives":[{
			"attributes":{
				"POSITION":13,
				"NORMAL":14,
				"TEXCOORD_0":15
			},
			"indices":12,
			"material":0
		}]
	}],
	"accessors":[{
		"bufferView":0,
		"byteOffset":0,
		"type":"SCALAR",
		"componentType":5123,
		"max":[35],
		"count":36,
		"min":[0]
	},
	{
		"bufferView":1,
		"byteOffset":0,
		"type":"VEC3",
		"componentType":5126,
		"max":[2.477602243423462,
		1.4241100549697877,
		0.007316472474485636],
		"count":36,
		"min":[-2.477602243423462,
		-1.4241100549697877,
		-0.007316472474485636]
	},
	{
		"bufferView":1,
		"byteOffset":12,
		"type":"VEC3",
		"componentType":5126,
		"max":[1.0,
		1.0,
		1.0],
		"count":36,
		"min":[-1.0,
		-1.0,
		-1.0]
	},
	{
		"bufferView":1,
		"byteOffset":24,
		"type":"VEC2",
		"componentType":5126,
		"max":[1.0,
		1.0],
		"count":36,
		"min":[0.0,
		0.0]
	},
	{
		"bufferView":2,
		"byteOffset":0,
		"type":"SCALAR",
		"componentType":5123,
		"max":[35],
		"count":36,
		"min":[0]
	},
	{
		"bufferView":3,
		"byteOffset":0,
		"type":"VEC3",
		"componentType":5126,
		"max":[2.477602243423462,
		1.4241100549697877,
		0.007316472474485636],
		"count":36,
		"min":[-2.477602243423462,
		-1.4241100549697877,
		-0.007316472474485636]
	},
	{
		"bufferView":3,
		"byteOffset":12,
		"type":"VEC3",
		"componentType":5126,
		"max":[1.0,
		1.0,
		1.0],
		"count":36,
		"min":[-1.0,
		-1.0,
		-1.0]
	},
	{
		"bufferView":3,
		"byteOffset":24,
		"type":"VEC2",
		"componentType":5126,
		"max":[1.0,
		1.0],
		"count":36,
		"min":[0.0,
		0.0]
	},
	{
		"bufferView":4,
		"byteOffset":0,
		"type":"SCALAR",
		"componentType":5123,
		"max":[11],
		"count":12,
		"min":[0]
	},
	{
		"bufferView":5,
		"byteOffset":0,
		"type":"VEC3",
		"componentType":5126,
		"max":[2.477602243423462,
		0.5370213985443115,
		7.316472760976467e-7],
		"count":12,
		"min":[-2.477602243423462,
		-1.4241100549697877,
		-0.0000034992192468052964]
	},
	{
		"bufferView":5,
		"byteOffset":12,
		"type":"VEC3",
		"componentType":5126,
		"max":[0.0,
		0.0,
		1.0],
		"count":12,
		"min":[0.0,
		0.0,
		-1.0]
	},
	{
		"bufferView":5,
		"byteOffset":24,
		"type":"VEC2",
		"componentType":5126,
		"max":[1.0,
		1.0],
		"count":12,
		"min":[0.0,
		0.0]
	},
	{
		"bufferView":6,
		"byteOffset":0,
		"type":"SCALAR",
		"componentType":5123,
		"max":[11],
		"count":12,
		"min":[0]
	},
	{
		"bufferView":7,
		"byteOffset":0,
		"type":"VEC3",
		"componentType":5126,
		"max":[2.477602243423462,
		1.560364842414856,
		7.316472760976467e-7],
		"count":12,
		"min":[-2.477602243423462,
		-1.560364842414856,
		7.316472760976467e-7]
	},
	{
		"bufferView":7,
		"byteOffset":12,
		"type":"VEC3",
		"componentType":5126,
		"max":[0.0,
		0.0,
		1.0],
		"count":12,
		"min":[0.0,
		0.0,
		-1.0]
	},
	{
		"bufferView":7,
		"byteOffset":24,
		"type":"VEC2",
		"componentType":5126,
		"max":[1.0,
		1.0],
		"count":12,
		"min":[0.0,
		0.0]
	}],
	"bufferViews":[{
		"buffer":0,
		"byteOffset":0,
		"byteLength":72,
		"target":34963
	},
	{
		"buffer":0,
		"byteOffset":72,
		"byteLength":1152,
		"target":34962,
		"byteStride":32
	},
	{
		"buffer":1,
		"byteOffset":0,
		"byteLength":72,
		"target":34963
	},
	{
		"buffer":1,
		"byteOffset":72,
		"byteLength":1152,
		"target":34962,
		"byteStride":32
	},
	{
		"buffer":2,
		"byteOffset":0,
		"byteLength":24,
		"target":34963
	},
	{
		"buffer":2,
		"byteOffset":24,
		"byteLength":384,
		"target":34962,
		"byteStride":32
	},
	{
		"buffer":3,
		"byteOffset":0,
		"byteLength":24,
		"target":34963
	},
	{
		"buffer":3,
		"byteOffset":24,
		"byteLength":384,
		"target":34962,
		"byteStride":32
	}],
	"buffers":[{
		"uri":"data:application/octet-stream;base64,",
		"byteLength":1224
	},
	{
		"uri":"data:application/octet-stream;base64,",
		"byteLength":1224
	},
	{
		"uri":"data:application/octet-stream;base64,",
		"byteLength":408
	},
	{
		"uri":"data:application/octet-stream;base64,",
		"byteLength":408
	}],
	"materials":[{
		"pbrMetallicRoughness":{
			"baseColorFactor":[1.0,
			1.0,
			1.0,
			1.0],
			"metallicFactor":0.0,
			"roughnessFactor":0.0
		},
		"emissiveFactor":[0.0,
		0.0,
		0.0],
		"alphaMode":"OPAQUE",
		"doubleSided":true,
		"name":"RS Standard.2"
	}]
}